# xmcd CD database file
#
# Track frame offsets:
#	150
#	14238
#	26686
#	38512
#	54090
#	69367
#	83847
#	97509
#	113420
#	129149
#	144810
#	156378
#
# Disc length: 2231 seconds
#
# Revision: 1
# Processed by: cddbd v1.5.2PL0 Copyright (c) Steve Scherf et al.
# Submitted via: CDex 1.70beta2
#
DISCID=8108b50c
DTITLE=Charlie Parker - Jazz HIstory 2
DYEAR=2005
DGENRE=Jazz
TTITLE0=Steeplechase
TTITLE1=Marmaduke
TTITLE2=Perhaps
TTITLE3=An Oscar For Treadwell
TTITLE4=Segment
TTITLE5=CardBoard
TTITLE6=Passport
TTITLE7=Star Eyes
TTITLE8=Bloomdido
TTITLE9=My Melancholy
TTITLE10=Leap Frog
TTITLE11=Merry Go Round
EXTD=YEAR: 2005
EXTT0=
EXTT1=
EXTT2=
EXTT3=
EXTT4=
EXTT5=
EXTT6=
EXTT7=
EXTT8=
EXTT9=
EXTT10=
EXTT11=
PLAYORDER=
